<svg width="26" height="26" viewBox="0 0 26 26" fill="none" xmlns="http://www.w3.org/2000/svg">
    <path fill-rule="evenodd" clip-rule="evenodd"
        d="M21.754 15H25V12H21.753C21.544 11.133 21.202 9.819 20.75 9.078L23.046 6.782L20.217 3.954L17.921 6.25C17.179 5.798 15.867 5.456 15 5.247V2H12V5.247C11.133 5.456 9.819 5.798 9.079 6.25L6.782 3.954L3.954 6.782L6.25 9.079C5.798 9.819 5.456 11.133 5.246 12H2V15H5.246C5.456 15.867 5.798 17.181 6.25 17.921L3.953 20.218L6.782 23.046L9.078 20.749C9.819 21.202 11.133 21.544 12 21.754V25H15V21.754C15.867 21.544 17.18 21.202 17.921 20.75L20.218 23.046L23.046 20.218L20.75 17.921C21.202 17.181 21.544 15.867 21.754 15V15Z"
        stroke="#364047" stroke-linecap="round" stroke-linejoin="round" />
    <path fill-rule="evenodd" clip-rule="evenodd"
        d="M18 13.5C18 15.985 15.985 18 13.5 18C11.014 18 9 15.985 9 13.5C9 11.015 11.014 9 13.5 9C15.985 9 18 11.015 18 13.5V13.5Z"
        stroke="#364047" stroke-linecap="round" stroke-linejoin="round" />
</svg>