<svg width="24" height="24" viewBox="0 0 24 24" fill="none" xmlns="http://www.w3.org/2000/svg">
    <path
        d="M14.0462 2.24206L9.89819 2.23206H9.89619C5.52219 2.23206 2.09619 5.65906 2.09619 10.0341C2.09619 14.1321 5.28219 17.2401 9.56119 17.4041V21.2321C9.56119 21.3401 9.60519 21.5181 9.68119 21.6351C9.82319 21.8601 10.0652 21.9821 10.3132 21.9821C10.4512 21.9821 10.5902 21.9441 10.7152 21.8641C10.9792 21.6961 17.1882 17.7241 18.8032 16.3581C20.7052 14.7481 21.8432 12.3881 21.8462 10.0461V10.0291C21.8402 5.66206 18.4162 2.24206 14.0462 2.24106V2.24206ZM17.8332 15.2141C16.6992 16.1741 12.9712 18.6191 11.0612 19.8571V16.6701C11.0612 16.2561 10.7262 15.9201 10.3112 15.9201H9.91519C6.25519 15.9201 3.59719 13.4441 3.59719 10.0341C3.59719 6.50006 6.36519 3.73206 9.89719 3.73206L14.0442 3.74206H14.0462C17.5782 3.74206 20.3462 6.50806 20.3482 10.0381C20.3452 11.9481 19.4062 13.8821 17.8342 15.2141H17.8332Z"
        fill="black" />
</svg>